<svg width="207" height="32" viewBox="0 0 207 32" fill="none" xmlns="http://www.w3.org/2000/svg">
<path d="M4.76774 30.6032C3.24471 30.6032 2.06902 30.146 1.23941 29.2289C0.412305 28.3089 0 26.9218 0 25.0662V2.21973C0.725906 1.5198 1.61174 0.978878 2.65874 0.595548C3.70825 0.213638 4.79398 0.0219727 5.9172 0.0219727C7.57641 0.0219727 8.982 0.490487 10.1352 1.42468C11.3809 2.48522 12.0043 3.94897 12.0043 5.81451V18.5979C11.2372 18.6745 10.4825 18.9187 9.74039 19.3304C9.00074 19.7436 8.63092 20.1681 8.63092 20.6025C8.63092 20.868 8.7621 21.0952 9.02573 21.284C10.3813 19.9892 12.3954 19.3418 15.0679 19.3418H19.9406C20.8464 21.1477 21.2999 22.9934 21.2999 24.8788C21.2999 25.8144 21.155 26.8522 20.8651 27.9909C20.5778 29.1267 20.1954 29.9984 19.7157 30.6032H4.76774Z" fill="#F97E00"/>
<path d="M34.7197 15.2312C34.8297 15.3562 35.0008 15.4186 35.2345 15.4186C35.4669 15.4186 35.6655 15.3647 35.8292 15.2539C35.4719 12.8886 35.232 11.4874 35.1095 11.0515C34.9596 10.6014 34.7347 10.3757 34.4349 10.3757C34.2974 10.3757 34.1325 10.4211 33.9401 10.512L34.7197 15.2312ZM30.6516 22.2391C30.5142 22.4591 30.4467 22.6621 30.4467 22.8467C30.4467 23.301 30.8191 23.6801 31.5662 23.9825C32.3121 24.2863 33.2204 24.4766 34.2899 24.5561C34.4661 26.7978 34.6573 28.0742 34.8647 28.3837C34.6048 28.9629 33.8851 29.545 32.7057 30.1271C31.5262 30.7092 30.1969 31.0017 28.7176 31.0017C26.7585 31.0017 25.0793 30.5232 23.6799 29.5649C22.2831 28.608 21.5859 27.3728 21.5859 25.8622C21.5859 25.4576 21.6184 25.0998 21.6859 24.7889L26.0638 2.54442C27.1595 1.75362 28.4689 1.1332 29.992 0.68172C31.5137 0.227403 33.0967 0.000244141 34.7397 0.000244141C37.0986 0.000244141 39.1139 0.453141 40.7868 1.35752C42.6922 2.38399 43.8504 3.87046 44.2602 5.8155L48.948 27.8499C47.5212 29.9511 45.1973 31.0017 41.9763 31.0017C40.4133 31.0017 39.0902 30.6837 38.0082 30.0476C36.9287 29.4087 36.299 28.4959 36.1191 27.3104L35.6693 24.4595C36.4889 24.4453 37.281 24.2664 38.0481 23.9257C38.8178 23.5821 39.2026 23.2215 39.2026 22.8467C39.2026 22.6011 39.1139 22.3981 38.9377 22.2391C38.4142 22.6593 37.7758 22.9802 37.0236 23.1988C36.2702 23.4189 35.5706 23.5282 34.9246 23.5282C33.0755 23.5282 31.6512 23.0994 30.6516 22.2391Z" fill="#F97E00"/>
<path d="M67.531 0.02296C69.1765 0.02296 70.6021 0.531227 71.809 1.54492C73.0147 2.55578 73.6181 3.99681 73.6181 5.86661V18.8544C73.6181 22.8112 72.5549 25.8608 70.4296 28.0032C68.3069 30.1428 65.372 31.2118 61.6238 31.2118C57.8756 31.2118 54.9582 30.1612 52.8729 28.06C50.7502 25.9559 49.6895 22.8865 49.6895 18.8544V2.198C51.3049 0.73283 53.1753 0.000244141 55.3018 0.000244141C57.081 0.000244141 58.4915 0.534066 59.5348 1.60171C60.5768 2.66936 61.0991 4.28502 61.0991 6.44587V20.0697C61.249 20.1946 61.4214 20.2571 61.6188 20.2571C61.8187 20.2571 61.9636 20.1989 62.0536 20.0811C62.1436 19.9646 62.1885 19.7432 62.1885 19.4166V6.42315C62.1885 5.44353 62.1461 4.66551 62.0636 4.0891C61.9799 3.5141 61.815 2.93911 61.5688 2.36269C63.2143 0.803817 65.2021 0.02296 67.531 0.02296Z" fill="#F97E00"/>
<path d="M134.613 31.0015C132.734 31.0015 131.26 30.6508 130.191 29.9508C129.041 29.2211 128.418 28.1847 128.321 26.8445L128.136 24.6467C129.396 24.306 130.458 23.4186 131.325 21.9833C131.557 21.5786 131.675 21.228 131.675 20.9327C131.675 20.528 131.496 20.325 131.14 20.325H131.075C131.061 20.3406 131.035 20.3477 130.995 20.3477C130.036 22.6392 128.479 23.7835 126.327 23.7835C125.23 23.7835 124.295 23.5109 123.519 22.9657C122.745 22.4205 122.037 21.4778 121.395 20.1376H121.27C120.9 20.1376 120.715 20.3179 120.715 20.6771C120.715 20.927 120.796 21.2081 120.96 21.5176C121.51 22.5597 122.196 23.3774 123.019 23.9709C123.661 24.4678 124.34 24.7631 125.053 24.8568L124.888 29.275C124.065 29.8813 123.196 30.32 122.284 30.5926C121.375 30.8652 120.08 31.0015 118.401 31.0015C116.722 31.0015 115.224 30.6281 113.908 29.8827C112.291 28.9627 111.484 27.6849 111.484 26.0494C111.484 24.0092 111.84 18.9706 112.554 10.932C112.936 6.74519 113.245 3.8191 113.478 2.15233C114.89 0.718389 116.973 0 119.725 0C121.727 0 123.386 0.420243 124.703 1.26073L125.833 5.5597L125.113 8.99548C125.059 9.23115 125.033 9.45547 125.033 9.67127C125.033 10.2165 125.305 10.4976 125.853 10.5118L127.807 1.28345C128.369 0.942708 129.102 0.644562 130.006 0.386169C130.911 0.129196 131.9 0 132.969 0C134.968 0 136.45 0.386169 137.417 1.15851C138.383 1.92801 138.956 3.22423 139.136 5.0486C139.176 5.38934 139.237 5.95723 139.321 6.75229C140.567 18.9322 141.19 26.1048 141.19 28.2699C139.671 30.0914 137.478 31.0015 134.613 31.0015Z" fill="#F97E00"/>
<path d="M154 4.67426V28.8042C153.371 29.4289 152.527 29.9513 151.472 30.3716C150.415 30.7918 149.133 31.0019 147.623 31.0019C146.117 31.0019 144.837 30.6186 143.785 29.8548C142.592 29.0299 141.996 27.8615 141.996 26.3509V2.22095C142.626 1.59627 143.467 1.0738 144.52 0.653558C145.576 0.233315 146.85 0.0231934 148.343 0.0231934C149.839 0.0231934 151.134 0.398005 152.231 1.14763C153.411 2.00373 154 3.17928 154 4.67426Z" fill="#F97E00"/>
<path d="M168.081 15.231C168.191 15.3559 168.362 15.4184 168.596 15.4184C168.828 15.4184 169.027 15.3644 169.191 15.2537C168.833 12.8884 168.593 11.4871 168.471 11.0513C168.321 10.6012 168.096 10.3755 167.796 10.3755C167.659 10.3755 167.494 10.4209 167.301 10.5118L168.081 15.231ZM164.013 22.2388C163.876 22.4589 163.808 22.6619 163.808 22.8465C163.808 23.3008 164.18 23.6799 164.928 23.9823C165.673 24.2861 166.582 24.4763 167.651 24.5558C167.827 26.7976 168.019 28.0739 168.226 28.3835C167.966 28.9627 167.246 29.5448 166.067 30.1269C164.888 30.709 163.558 31.0015 162.079 31.0015C160.12 31.0015 158.441 30.523 157.041 29.5647C155.644 28.6078 154.947 27.3726 154.947 25.862C154.947 25.4574 154.98 25.0996 155.047 24.7887L159.425 2.54417C160.521 1.75338 161.83 1.13295 163.353 0.681475C164.875 0.227158 166.458 0 168.101 0C170.46 0 172.475 0.452897 174.148 1.35727C176.054 2.38374 177.212 3.87021 177.622 5.81526L182.309 27.8496C180.882 29.9508 178.559 31.0015 175.338 31.0015C173.775 31.0015 172.451 30.6834 171.369 30.0474C170.29 29.4085 169.66 28.4956 169.48 27.3101L169.031 24.4593C169.85 24.4451 170.642 24.2662 171.409 23.9255C172.179 23.5819 172.564 23.2213 172.564 22.8465C172.564 22.6008 172.475 22.3978 172.299 22.2388C171.776 22.6591 171.137 22.9799 170.385 23.1986C169.632 23.4186 168.932 23.5279 168.286 23.5279C166.437 23.5279 165.013 23.0992 164.013 22.2388Z" fill="#F97E00"/>
<path d="M200.892 0.0227158C202.538 0.0227158 203.963 0.530983 205.17 1.54468C206.376 2.55553 206.979 3.99657 206.979 5.86637V18.8542C206.979 22.811 205.916 25.8606 203.791 28.003C201.668 30.1425 198.733 31.2116 194.985 31.2116C191.237 31.2116 188.32 30.161 186.234 28.0597C184.112 25.9557 183.051 22.8862 183.051 18.8542V2.19776C184.666 0.732586 186.537 0 188.663 0C190.442 0 191.853 0.533822 192.896 1.60147C193.938 2.66911 194.46 4.28478 194.46 6.44562V20.0695C194.61 20.1944 194.783 20.2569 194.98 20.2569C195.18 20.2569 195.325 20.1986 195.415 20.0808C195.505 19.9644 195.55 19.7429 195.55 19.4164V6.42291C195.55 5.44328 195.507 4.66527 195.425 4.08885C195.341 3.51386 195.176 2.93886 194.93 2.36245C196.576 0.803573 198.563 0.0227158 200.892 0.0227158Z" fill="#F97E00"/>
<mask id="mask0_612_2285" style="mask-type:luminance" maskUnits="userSpaceOnUse" x="87" y="0" width="8" height="11">
<path d="M87.2539 0.551758H94.9303V10.7285H87.2539V0.551758Z" fill="white"/>
</mask>
<g mask="url(#mask0_612_2285)">
<mask id="mask1_612_2285" style="mask-type:luminance" maskUnits="userSpaceOnUse" x="72" y="-7" width="39" height="41">
<path d="M84.4219 -6.20312L110.175 11.2512L98.3778 33.7257L72.625 16.2714L84.4219 -6.20312Z" fill="white"/>
</mask>
<g mask="url(#mask1_612_2285)">
<mask id="mask2_612_2285" style="mask-type:luminance" maskUnits="userSpaceOnUse" x="72" y="-7" width="39" height="41">
<path d="M84.4219 -6.20312L110.175 11.2512L98.3778 33.7257L72.625 16.2714L84.4219 -6.20312Z" fill="white"/>
</mask>
<g mask="url(#mask2_612_2285)">
<mask id="mask3_612_2285" style="mask-type:luminance" maskUnits="userSpaceOnUse" x="72" y="-7" width="39" height="41">
<path d="M84.4219 -6.20312L110.175 11.2512L98.3778 33.7257L72.625 16.2714L84.4219 -6.20312Z" fill="white"/>
</mask>
<g mask="url(#mask3_612_2285)">
<path fill-rule="evenodd" clip-rule="evenodd" d="M92.6916 1.1025C97.658 3.47772 93.1289 13.0638 89.0071 9.9631C85.6924 7.47145 88.3749 -0.961806 92.6916 1.1025Z" fill="#F97E00"/>
</g>
</g>
</g>
</g>
<mask id="mask4_612_2285" style="mask-type:luminance" maskUnits="userSpaceOnUse" x="93" y="5" width="10" height="11">
<path d="M93.9707 5.64087H102.607V15.4541H93.9707V5.64087Z" fill="white"/>
</mask>
<g mask="url(#mask4_612_2285)">
<mask id="mask5_612_2285" style="mask-type:luminance" maskUnits="userSpaceOnUse" x="72" y="-7" width="39" height="41">
<path d="M84.4219 -6.20288L110.175 11.2514L98.3778 33.7259L72.625 16.2716L84.4219 -6.20288Z" fill="white"/>
</mask>
<g mask="url(#mask5_612_2285)">
<mask id="mask6_612_2285" style="mask-type:luminance" maskUnits="userSpaceOnUse" x="72" y="-7" width="39" height="41">
<path d="M84.4219 -6.20288L110.175 11.2514L98.3778 33.7259L72.625 16.2716L84.4219 -6.20288Z" fill="white"/>
</mask>
<g mask="url(#mask6_612_2285)">
<mask id="mask7_612_2285" style="mask-type:luminance" maskUnits="userSpaceOnUse" x="72" y="-7" width="39" height="41">
<path d="M84.4219 -6.20288L110.175 11.2514L98.3778 33.7259L72.625 16.2716L84.4219 -6.20288Z" fill="white"/>
</mask>
<g mask="url(#mask7_612_2285)">
<path fill-rule="evenodd" clip-rule="evenodd" d="M100.057 6.09557C105.762 8.26352 99.82 18.0611 95.4221 14.3116C91.9412 11.3429 96.4066 4.70707 100.057 6.09557Z" fill="#F97E00"/>
</g>
</g>
</g>
</g>
<mask id="mask8_612_2285" style="mask-type:luminance" maskUnits="userSpaceOnUse" x="78" y="2" width="9" height="11">
<path d="M78.9375 2.00635H86.6139V12.183H78.9375V2.00635Z" fill="white"/>
</mask>
<g mask="url(#mask8_612_2285)">
<mask id="mask9_612_2285" style="mask-type:luminance" maskUnits="userSpaceOnUse" x="72" y="-7" width="39" height="41">
<path d="M84.4219 -6.20312L110.175 11.2512L98.3778 33.7257L72.625 16.2714L84.4219 -6.20312Z" fill="white"/>
</mask>
<g mask="url(#mask9_612_2285)">
<mask id="mask10_612_2285" style="mask-type:luminance" maskUnits="userSpaceOnUse" x="72" y="-7" width="39" height="41">
<path d="M84.4219 -6.20312L110.175 11.2512L98.3778 33.7257L72.625 16.2714L84.4219 -6.20312Z" fill="white"/>
</mask>
<g mask="url(#mask10_612_2285)">
<mask id="mask11_612_2285" style="mask-type:luminance" maskUnits="userSpaceOnUse" x="72" y="-7" width="39" height="41">
<path d="M84.4219 -6.20312L110.175 11.2512L98.3778 33.7257L72.625 16.2714L84.4219 -6.20312Z" fill="white"/>
</mask>
<g mask="url(#mask11_612_2285)">
<path fill-rule="evenodd" clip-rule="evenodd" d="M85.1409 11.1918C81.0066 14.4302 77.1897 7.57574 80.1183 3.57349C83.2043 -0.641719 89.274 6.6884 85.1409 11.1918Z" fill="#F97E00"/>
</g>
</g>
</g>
</g>
<mask id="mask12_612_2285" style="mask-type:luminance" maskUnits="userSpaceOnUse" x="96" y="15" width="10" height="10">
<path d="M96.5293 15.0896H105.485V24.1759H96.5293V15.0896Z" fill="white"/>
</mask>
<g mask="url(#mask12_612_2285)">
<mask id="mask13_612_2285" style="mask-type:luminance" maskUnits="userSpaceOnUse" x="72" y="-7" width="39" height="41">
<path d="M84.4219 -6.20312L110.175 11.2512L98.3778 33.7257L72.625 16.2714L84.4219 -6.20312Z" fill="white"/>
</mask>
<g mask="url(#mask13_612_2285)">
<mask id="mask14_612_2285" style="mask-type:luminance" maskUnits="userSpaceOnUse" x="72" y="-7" width="39" height="41">
<path d="M84.4219 -6.20312L110.175 11.2512L98.3778 33.7257L72.625 16.2714L84.4219 -6.20312Z" fill="white"/>
</mask>
<g mask="url(#mask14_612_2285)">
<mask id="mask15_612_2285" style="mask-type:luminance" maskUnits="userSpaceOnUse" x="72" y="-7" width="39" height="41">
<path d="M84.4219 -6.20312L110.175 11.2512L98.3778 33.7257L72.625 16.2714L84.4219 -6.20312Z" fill="white"/>
</mask>
<g mask="url(#mask15_612_2285)">
<mask id="mask16_612_2285" style="mask-type:luminance" maskUnits="userSpaceOnUse" x="95" y="13" width="12" height="14">
<path d="M99.5903 13.3699L106.577 18.1061L102.34 26.1774L95.3535 21.4425L99.5903 13.3699Z" fill="white"/>
</mask>
<g mask="url(#mask16_612_2285)">
<path fill-rule="evenodd" clip-rule="evenodd" d="M102.9 15.7163C104.218 16.2572 105.444 17.7351 105.399 19.2415C105.278 23.3999 100.469 25.3251 97.885 23.1245C96.4645 21.9177 96.3595 19.8576 96.9492 18.4606C98.2136 15.4706 100.925 14.9056 102.9 15.7163Z" fill="#F97E00"/>
</g>
</g>
</g>
</g>
</g>
<mask id="mask17_612_2285" style="mask-type:luminance" maskUnits="userSpaceOnUse" x="80" y="12" width="16" height="17">
<path d="M80.8574 12.1819H95.5705V28.1738H80.8574V12.1819Z" fill="white"/>
</mask>
<g mask="url(#mask17_612_2285)">
<mask id="mask18_612_2285" style="mask-type:luminance" maskUnits="userSpaceOnUse" x="72" y="-7" width="39" height="41">
<path d="M84.4219 -6.20312L110.175 11.2512L98.3778 33.7257L72.625 16.2714L84.4219 -6.20312Z" fill="white"/>
</mask>
<g mask="url(#mask18_612_2285)">
<mask id="mask19_612_2285" style="mask-type:luminance" maskUnits="userSpaceOnUse" x="72" y="-7" width="39" height="41">
<path d="M84.4219 -6.20312L110.175 11.2512L98.3778 33.7257L72.625 16.2714L84.4219 -6.20312Z" fill="white"/>
</mask>
<g mask="url(#mask19_612_2285)">
<mask id="mask20_612_2285" style="mask-type:luminance" maskUnits="userSpaceOnUse" x="72" y="-7" width="39" height="41">
<path d="M84.4219 -6.20312L110.175 11.2512L98.3778 33.7257L72.625 16.2714L84.4219 -6.20312Z" fill="white"/>
</mask>
<g mask="url(#mask20_612_2285)">
<mask id="mask21_612_2285" style="mask-type:luminance" maskUnits="userSpaceOnUse" x="79" y="9" width="19" height="21">
<path d="M85.7395 9.59253L97.8038 17.7688L91.7779 29.2488L79.7148 21.0726L85.7395 9.59253Z" fill="white"/>
</mask>
<g mask="url(#mask21_612_2285)">
<path fill-rule="evenodd" clip-rule="evenodd" d="M90.4836 12.9808C95.0752 14.9855 97.1067 20.9867 93.216 26.1887C92.4102 27.2662 90.616 28.3438 89.2792 27.5516C88.1997 26.9113 87.5862 24.9279 86.2818 24.0548C84.6638 22.9701 82.5373 23.7353 81.4604 21.8854C80.5558 20.3322 81.5153 17.179 82.8235 15.2992C84.7101 12.589 87.7174 11.7726 90.4836 12.9808Z" fill="#F97E00"/>
</g>
</g>
</g>
</g>
</g>
</svg>
